<svg xmlns="http://www.w3.org/2000/svg" viewBox="0 0 108.09 87.83"><defs><style>.cls-1{fill:#2850ff;}</style></defs><g id="レイヤー_2" data-name="レイヤー 2"><g id="レイヤー_1-2" data-name="レイヤー 1"><path id="Logo" class="cls-1" d="M97,21.86c.06,1,.06,1.91.06,2.87,0,29.31-22.31,63.1-63.1,63.1v0A62.72,62.72,0,0,1,0,77.87a46.48,46.48,0,0,0,5.28.32,44.49,44.49,0,0,0,27.54-9.51A22.21,22.21,0,0,1,12.1,53.28a22.18,22.18,0,0,0,10-.39A22.19,22.19,0,0,1,4.32,31.16v-.29a22,22,0,0,0,10.07,2.78A22.19,22.19,0,0,1,7.52,4.05,63,63,0,0,0,53.23,27.22,22.2,22.2,0,0,1,91,7,44.46,44.46,0,0,0,105.1,1.61a22.23,22.23,0,0,1-9.75,12.26,44.08,44.08,0,0,0,12.74-3.49A45,45,0,0,1,97,21.86Z"/></g></g></svg>