<svg xmlns="http://www.w3.org/2000/svg" xmlns:xlink="http://www.w3.org/1999/xlink" viewBox="0 0 99.08 99.08"><defs><style>.cls-1{fill:none;}.cls-2{fill:#ff0078;}.cls-3{fill:url(#Unnamed_Pattern);}</style><pattern id="Unnamed_Pattern" data-name="Unnamed Pattern" width="331.5" height="331.5" patternUnits="userSpaceOnUse" viewBox="0 0 331.5 331.5"><rect class="cls-1" width="331.5" height="331.5"/><rect class="cls-2" width="331.5" height="331.5"/></pattern></defs><g id="レイヤー_2" data-name="レイヤー 2"><g id="レイヤー_1-2" data-name="レイヤー 1"><path class="cls-3" d="M49.54,8.93c13.23,0,14.8.05,20,.29a27.44,27.44,0,0,1,9.2,1.7,15.26,15.26,0,0,1,5.69,3.71,15.26,15.26,0,0,1,3.71,5.69,27.37,27.37,0,0,1,1.71,9.2c.23,5.23.29,6.79.29,20s-.06,14.8-.29,20a27.37,27.37,0,0,1-1.71,9.2,16.48,16.48,0,0,1-9.4,9.4,27.37,27.37,0,0,1-9.2,1.71c-5.22.23-6.79.29-20,.29s-14.79-.06-20-.29a27.37,27.37,0,0,1-9.2-1.71,15.26,15.26,0,0,1-5.69-3.71,15.26,15.26,0,0,1-3.71-5.69,27.44,27.44,0,0,1-1.7-9.2c-.24-5.22-.29-6.79-.29-20s.05-14.79.29-20a27.44,27.44,0,0,1,1.7-9.2,15.26,15.26,0,0,1,3.71-5.69,15.26,15.26,0,0,1,5.69-3.71,27.44,27.44,0,0,1,9.2-1.7c5.23-.24,6.79-.29,20-.29m0-8.93C36.09,0,34.4.06,29.12.3a36.46,36.46,0,0,0-12,2.3A25.27,25.27,0,0,0,2.6,17.09a36.46,36.46,0,0,0-2.3,12c-.24,5.28-.3,7-.3,20.42S.06,64.68.3,70A36.45,36.45,0,0,0,2.6,82,25.27,25.27,0,0,0,17.09,96.48a36.2,36.2,0,0,0,12,2.3c5.28.24,7,.3,20.42.3S64.68,99,70,98.78a36.19,36.19,0,0,0,12-2.3A25.27,25.27,0,0,0,96.48,82a36.19,36.19,0,0,0,2.3-12c.24-5.29.3-7,.3-20.43S99,34.4,98.78,29.12a36.2,36.2,0,0,0-2.3-12A25.27,25.27,0,0,0,82,2.6,36.45,36.45,0,0,0,70,.3C64.68.06,63,0,49.54,0Z"/><path class="cls-3" d="M49.54,24.1A25.44,25.44,0,1,0,75,49.54,25.44,25.44,0,0,0,49.54,24.1Zm0,41.95A16.51,16.51,0,1,1,66.05,49.54,16.51,16.51,0,0,1,49.54,66.05Z"/><circle class="cls-3" cx="75.99" cy="23.1" r="5.94"/></g></g></svg>