<svg xmlns="http://www.w3.org/2000/svg" viewBox="0 0 353.36 1120.02"><defs><style>.cls-1{fill:#2850ff;}.cls-2{fill:#ff0078;}</style></defs><g id="レイヤー_2" data-name="レイヤー 2"><g id="レイヤー_1-2" data-name="レイヤー 1"><path class="cls-1" d="M73.43,992.87v39.22a38,38,0,0,1-.26,4.57,14.87,14.87,0,0,1-.86,3.6,16.31,16.31,0,0,1-2.66,4.39,16.56,16.56,0,0,1-3.94,3.37,19.91,19.91,0,0,1-5,2.18A20.83,20.83,0,0,1,55,1051q-9.07,0-14.77-8.32l8.56-8.76c1.7,2.21,2.84,3.45,5.49,3.45s4.47-1.45,4.47-5.49v-39Z"/><path class="cls-1" d="M120,1039.59H99l-3.38,9.82H80l21.52-56.54h16l21.52,56.54H123.38Zm-3.9-11.18-6.6-18.82-6.59,18.82Z"/><path class="cls-1" d="M160.2,1049.41H145.5V992.87h23.4q9.53,0,14.58,4.94t5.07,14q0,9-5.07,14t-14.58,5h-8.7Zm0-30.6h4.87q8.1,0,8.1-7t-8.1-7H160.2Z"/><path class="cls-1" d="M226.49,1039.59h-21l-3.37,9.82H186.44L208,992.87H224l21.52,56.54H229.87Zm-3.9-11.18-6.6-18.82-6.6,18.82Z"/><path class="cls-1" d="M252,1049.41V992.87h14.7l27.14,34.57V992.87h14.63v56.54H293.83l-27.14-34.57v34.57Z"/><path class="cls-2" d="M176.68,413.62A70.34,70.34,0,1,0,247,484,70.34,70.34,0,0,0,176.68,413.62Zm0,107.16A36.82,36.82,0,1,1,213.5,484,36.83,36.83,0,0,1,176.68,520.78Z"/><rect class="cls-2" x="126.19" y="582.26" width="100.99" height="30.64"/><rect class="cls-2" x="131.81" y="745.62" width="86" height="30.64"/><rect class="cls-2" x="131.81" y="795.63" width="86" height="30.64"/><rect class="cls-2" x="131.81" y="845.63" width="86" height="30.64"/><rect class="cls-2" x="159.7" y="596.64" width="33.96" height="116.26"/><rect class="cls-2" x="131.81" y="745.62" width="33.96" height="130.64"/><polygon class="cls-2" points="249.02 243.76 209.28 243.76 176.68 318.83 144.09 243.76 104.34 243.76 176.68 393.29 249.02 243.76"/><path class="cls-1" d="M238.16,49a49.59,49.59,0,1,0,49.58,49.58A49.58,49.58,0,0,0,238.16,49Zm0,75.54a26,26,0,1,1,26-26A26,26,0,0,1,238.16,124.57Z"/><rect class="cls-1" x="115.2" y="92.54" width="40.86" height="20.7"/><path class="cls-1" d="M140.41,92.54a25.92,25.92,0,1,1-3.9-8.72l22.15-9.07a49.59,49.59,0,1,0,6.12,23.86,50.73,50.73,0,0,0-.38-6.07Z"/><path class="cls-1" d="M0,0V1120H353.36V0ZM15,196.19H338.36V923.83H15ZM338.36,15V181.19H15V15ZM15,1105V938.83H338.36V1105Z"/></g></g></svg>