<svg xmlns="http://www.w3.org/2000/svg" viewBox="0 0 115.59 147.06"><g id="レイヤー_2" data-name="レイヤー 2"><g id="レイヤー_3" data-name="レイヤー 3"><path d="M50.84,75.47l-.12,0a9.62,9.62,0,0,1-1.33,3.59,6.62,6.62,0,0,1-2.87,2.39,5.65,5.65,0,0,1-5.44.09q-2.4-1.35-3.41-5.23L34.26,63.1l5-2.37,3.2,12.62q1.09,4.35,4.28,2.85a4.13,4.13,0,0,0,2.33-2.76A8.66,8.66,0,0,0,49,69L46,57.54l5-2.38,5.37,21-4.84,2.28Z"/><path d="M54.38,53.61l4.84-2.29.67,2.58.11-.06a8.53,8.53,0,0,1,1.49-3.27,7.71,7.71,0,0,1,3-2.4,6.73,6.73,0,0,1,3.15-.71,6.8,6.8,0,0,1,2.92.78,8.87,8.87,0,0,1,2.54,2.06,13.71,13.71,0,0,1,2,3.14,18.59,18.59,0,0,1,1.42,4.4,14,14,0,0,1,.13,4.65,10.34,10.34,0,0,1-1.62,4.23,8.91,8.91,0,0,1-3.79,3.14,7.66,7.66,0,0,1-3.66.76,5.8,5.8,0,0,1-3.51-1.37l-.08,0,2.49,9.84-5,2.37Zm8.13,9.83a6.37,6.37,0,0,0,1,1.56,4.25,4.25,0,0,0,1.38,1.1,3.76,3.76,0,0,0,1.7.39A4.46,4.46,0,0,0,68.54,66a4.58,4.58,0,0,0,2.09-1.81,5.61,5.61,0,0,0,.74-2.5,9.19,9.19,0,0,0-.29-2.86,14.77,14.77,0,0,0-1-2.78,8.32,8.32,0,0,0-1-1.57,4.53,4.53,0,0,0-1.3-1.15,3.52,3.52,0,0,0-1.62-.47,3.84,3.84,0,0,0-1.91.42,4.41,4.41,0,0,0-2,1.81,6.16,6.16,0,0,0-.82,2.59,10.08,10.08,0,0,0,.16,2.93A12.26,12.26,0,0,0,62.51,63.44Z"/><path d="M31.31,128.52l1.62-.76A3.67,3.67,0,0,0,35,125.7a4.12,4.12,0,0,0-.41-3.09,26.2,26.2,0,0,0-2.67-4l-9.25-12.39,5.26-2.48,5.44,8.12c.26.43.55.88.87,1.36s.6.91.85,1.32.61.94.9,1.41l.07,0c-.06-.59-.11-1.18-.14-1.77s-.06-1.07-.08-1.68,0-1.19-.07-1.74l-.15-10.62,5.11-2.41-.42,24.88a18.87,18.87,0,0,1-.26,3.15,8.18,8.18,0,0,1-.75,2.39,6.1,6.1,0,0,1-1.44,1.82,9.78,9.78,0,0,1-2.3,1.45l-3.15,1.49Z"/><path d="M57.62,113.94a11.41,11.41,0,0,1-3.8,1.09,9,9,0,0,1-3.68-.36,8.88,8.88,0,0,1-3.25-1.88,10.63,10.63,0,0,1-2.55-3.55,13.79,13.79,0,0,1-1.29-4.72,12.3,12.3,0,0,1,.49-4.66,11.58,11.58,0,0,1,6.28-7.11,11.48,11.48,0,0,1,3.72-1.07,8.72,8.72,0,0,1,6.85,2.2,10.72,10.72,0,0,1,2.47,3.45,14.21,14.21,0,0,1,1.33,4.76,12.65,12.65,0,0,1-.4,4.69,11,11,0,0,1-2.17,4.12A11.18,11.18,0,0,1,57.62,113.94Zm-8.11-6.77a8.37,8.37,0,0,0,1.1,1.75,5,5,0,0,0,1.47,1.21,4,4,0,0,0,1.78.47,4.61,4.61,0,0,0,2.08-.5,4.76,4.76,0,0,0,2.18-1.9,6.31,6.31,0,0,0,.85-2.68,9.77,9.77,0,0,0-.21-3,13.58,13.58,0,0,0-1-2.94,8.19,8.19,0,0,0-1.08-1.72,4.81,4.81,0,0,0-1.47-1.21,4,4,0,0,0-1.78-.47,4.61,4.61,0,0,0-2.08.5,4.76,4.76,0,0,0-2.18,1.9,6.28,6.28,0,0,0-.86,2.66,9.36,9.36,0,0,0,.2,3A14.43,14.43,0,0,0,49.51,107.17Z"/><path d="M79.45,99.6l-.11.05A9.73,9.73,0,0,1,78,103.24a6.62,6.62,0,0,1-2.87,2.39,5.65,5.65,0,0,1-5.44.09q-2.4-1.35-3.41-5.23L62.87,87.23l5-2.37,3.2,12.62q1.09,4.35,4.29,2.85a4.14,4.14,0,0,0,2.32-2.76,8.66,8.66,0,0,0-.12-4.44L74.66,81.67l5-2.37,5.37,21-4.84,2.28Z"/><path d="M88.69,78.81l.11-.06a9.64,9.64,0,0,1,1-3.34,5.19,5.19,0,0,1,2.56-2.35,9.07,9.07,0,0,1,.9-.38,2.2,2.2,0,0,1,.59-.14L95,77.38l-.11.05a6.48,6.48,0,0,0-3.93,3c-.76,1.4-.84,3.3-.22,5.7l2.62,10.24-5,2.38L83,77.74l4.84-2.29Z"/><path d="M73.55,146.26a7.73,7.73,0,0,1-3.25.8,7,7,0,0,1-3-.63,8.65,8.65,0,0,1-2.68-2,12.5,12.5,0,0,1-2.16-3.26,16.63,16.63,0,0,1-1.4-4.66,14,14,0,0,1,.1-4.71,10.88,10.88,0,0,1,1.77-4.14,8.84,8.84,0,0,1,3.56-2.94,7,7,0,0,1,3.67-.74,5.9,5.9,0,0,1,3.21,1.3l.11-.05L70.6,114.15l5-2.38,7.48,29.29-4.84,2.29-.62-2.29-.07,0a7.92,7.92,0,0,1-1.32,3.05A6.86,6.86,0,0,1,73.55,146.26Zm-6.15-7.79a8.81,8.81,0,0,0,1,1.71,4.32,4.32,0,0,0,1.31,1.16,3.45,3.45,0,0,0,1.6.44,4.29,4.29,0,0,0,1.9-.46,4.62,4.62,0,0,0,2-1.8,6.1,6.1,0,0,0,.86-2.51,8.79,8.79,0,0,0-.14-2.83,11.88,11.88,0,0,0-.89-2.7,6.42,6.42,0,0,0-2.55-3,3.69,3.69,0,0,0-3.6.05,4.19,4.19,0,0,0-2,1.77,5.83,5.83,0,0,0-.75,2.56,10.09,10.09,0,0,0,.23,2.87A12.69,12.69,0,0,0,67.4,138.47Z"/><path d="M98.36,133.86a2.23,2.23,0,0,1-.66-.76,8.12,8.12,0,0,1-.59-1.22l-.08,0a12.29,12.29,0,0,1-1.26,2.73,6.44,6.44,0,0,1-2.9,2.36,9.23,9.23,0,0,1-2.36.73,6.45,6.45,0,0,1-2.44-.1,5.93,5.93,0,0,1-2.24-1.1,6.26,6.26,0,0,1-1.76-2.31,6.65,6.65,0,0,1-.75-3.44,6,6,0,0,1,1-2.78,9.89,9.89,0,0,1,2.31-2.3,34.51,34.51,0,0,1,3.13-2c.87-.5,1.6-.94,2.2-1.32a6.25,6.25,0,0,0,1.38-1.08,2.08,2.08,0,0,0,.55-1.07,2.17,2.17,0,0,0-.25-1.25,2,2,0,0,0-1.54-1.23,4.42,4.42,0,0,0-2.48.5,5.27,5.27,0,0,0-2.28,1.89,3.57,3.57,0,0,0-.36,2.71L82.5,125A7.83,7.83,0,0,1,83,119a10.51,10.51,0,0,1,5.15-4.5,13.46,13.46,0,0,1,3.5-1.14,7,7,0,0,1,3.16.12,5.22,5.22,0,0,1,2.56,1.68,9,9,0,0,1,1.72,3.55l2.55,10.08a7.4,7.4,0,0,0,.65,1.72,2.41,2.41,0,0,0,.76.87l.09.19Zm-9.66-2.37a2.65,2.65,0,0,0,1.74,1.59,3.52,3.52,0,0,0,2.4-.33,5.85,5.85,0,0,0,1.65-1.12,5.38,5.38,0,0,0,1-1.43,4.82,4.82,0,0,0,.46-1.55,4.61,4.61,0,0,0-.07-1.53l-.84-3.32a9.67,9.67,0,0,1-1.34,1.29c-.5.41-1.12.88-1.88,1.42-.41.29-.87.59-1.36.9a6.82,6.82,0,0,0-1.3,1,3.08,3.08,0,0,0-.75,1.32A2.49,2.49,0,0,0,88.7,131.49Z"/><path d="M106.18,133l1.62-.76a3.69,3.69,0,0,0,2.06-2,4.12,4.12,0,0,0-.41-3.09,25.68,25.68,0,0,0-2.67-4l-9.25-12.39,5.26-2.48,5.44,8.12c.27.43.55.88.87,1.36s.6.92.85,1.32.61.94.9,1.42l.08,0q-.11-.89-.15-1.77c0-.51-.06-1.07-.08-1.68s0-1.19-.07-1.74l-.15-10.62,5.11-2.41-.42,24.89a20.32,20.32,0,0,1-.25,3.15,8.53,8.53,0,0,1-.76,2.38,6.1,6.1,0,0,1-1.44,1.82,9.47,9.47,0,0,1-2.3,1.45l-3.15,1.49Z"/><path d="M18.38,55.3a20,20,0,0,1-4.63,1.54,11.29,11.29,0,0,1-4.29,0,8.13,8.13,0,0,1-3.59-1.68,9.16,9.16,0,0,1-2.58-3.67l5.22-2.46a4.9,4.9,0,0,0,1.34,2,4,4,0,0,0,1.87.84A5.75,5.75,0,0,0,14,51.78a13.24,13.24,0,0,0,2.51-.91,10.66,10.66,0,0,0,1.84-1.1,5.54,5.54,0,0,0,1.35-1.39,4.13,4.13,0,0,0,.63-1.63A3.14,3.14,0,0,0,20,45a3,3,0,0,0-.84-1.11,3.33,3.33,0,0,0-1.42-.58,11.63,11.63,0,0,0-2.26-.12c-.91,0-2,.1-3.35.21s-2.68.2-3.83.2a11.41,11.41,0,0,1-3.11-.42,6.51,6.51,0,0,1-2.43-1.31A7.25,7.25,0,0,1,.93,39.34,9,9,0,0,1,0,35.57a7.85,7.85,0,0,1,.78-3.5A9.85,9.85,0,0,1,3.12,29a15.54,15.54,0,0,1,3.76-2.44A18.22,18.22,0,0,1,11,25.17a9.62,9.62,0,0,1,3.92-.06,7.77,7.77,0,0,1,3.39,1.59,8.52,8.52,0,0,1,2.49,3.53l-5.14,2.42A3.9,3.9,0,0,0,13,30.19a6.55,6.55,0,0,0-4.31.75,8.15,8.15,0,0,0-1.46.87A5.1,5.1,0,0,0,6.05,33a3.84,3.84,0,0,0-.63,1.49,2.8,2.8,0,0,0,.28,1.71,2.72,2.72,0,0,0,.78,1,2.83,2.83,0,0,0,1.28.47,9.36,9.36,0,0,0,2.07,0l3.1-.29a30.24,30.24,0,0,1,4.21-.22,12.33,12.33,0,0,1,3.39.51,7.2,7.2,0,0,1,2.58,1.42A8,8,0,0,1,25,41.72a9,9,0,0,1,.95,4.12A8.37,8.37,0,0,1,25,49.55a10.88,10.88,0,0,1-2.6,3.2A17.76,17.76,0,0,1,18.38,55.3Z"/><path d="M24.47,28.14l4.84-2.28L30,28.43l.11-.05a8.39,8.39,0,0,1,1.49-3.27,7.71,7.71,0,0,1,3-2.4A6.87,6.87,0,0,1,37.77,22a6.8,6.8,0,0,1,2.92.78,9,9,0,0,1,2.54,2.07,13.86,13.86,0,0,1,2,3.14,19,19,0,0,1,1.41,4.4A14.3,14.3,0,0,1,46.78,37a10.25,10.25,0,0,1-1.62,4.22,8.86,8.86,0,0,1-3.79,3.15,7.79,7.79,0,0,1-3.65.76,5.86,5.86,0,0,1-3.52-1.37l-.08,0,2.49,9.85-5,2.37ZM32.6,38a6.56,6.56,0,0,0,1,1.56A4.35,4.35,0,0,0,35,40.63a3.76,3.76,0,0,0,1.7.39,4.52,4.52,0,0,0,1.94-.47,4.61,4.61,0,0,0,2.08-1.81,5.69,5.69,0,0,0,.74-2.51,9.16,9.16,0,0,0-.29-2.85,15.89,15.89,0,0,0-1-2.79,7.94,7.94,0,0,0-1-1.56,4.39,4.39,0,0,0-1.3-1.15,3.65,3.65,0,0,0-1.62-.48,3.86,3.86,0,0,0-1.91.43,4.4,4.4,0,0,0-2,1.8,6.07,6.07,0,0,0-.82,2.59,10.06,10.06,0,0,0,.16,2.93A12.35,12.35,0,0,0,32.6,38Z"/><path d="M43.45,9.91l5-2.38,1.3,5-5,2.37Zm2.12,8.27,5-2.37,5.37,21-5,2.37Z"/><path d="M68.93,31.39a11.66,11.66,0,0,1-3.57,1.06,8.43,8.43,0,0,1-3.47-.24,7.91,7.91,0,0,1-3.1-1.77,10.82,10.82,0,0,1-2.48-3.51A15.07,15.07,0,0,1,55,22.25a13.3,13.3,0,0,1,.28-4.76,11.23,11.23,0,0,1,2-4.25,10.48,10.48,0,0,1,4-3.1,12.48,12.48,0,0,1,3.21-1,7.66,7.66,0,0,1,3.06.07,6.78,6.78,0,0,1,2.76,1.38,9.29,9.29,0,0,1,2.29,2.87l-4.91,2.32a4,4,0,0,0-2-1.76,3.33,3.33,0,0,0-2.69.28,4.47,4.47,0,0,0-2.07,1.85,6.15,6.15,0,0,0-.77,2.63,10.42,10.42,0,0,0,.25,3,13.58,13.58,0,0,0,1,2.94,7.07,7.07,0,0,0,1,1.63,4,4,0,0,0,1.32,1.06,3.43,3.43,0,0,0,1.63.33,5.13,5.13,0,0,0,1.93-.52,4.37,4.37,0,0,0,2.09-1.95A5.37,5.37,0,0,0,69.77,22l4.88-2.3A10.26,10.26,0,0,1,74,26.63,10.27,10.27,0,0,1,68.93,31.39Z"/><path d="M80.47,15.2A7,7,0,0,0,83,18.38a3.79,3.79,0,0,0,3.69-.16,5.33,5.33,0,0,0,2.09-1.7A4,4,0,0,0,89.53,14l5-2.34a9.84,9.84,0,0,1-.93,5.72,10.77,10.77,0,0,1-5.07,4.82,12.13,12.13,0,0,1-3.74,1.12A8.54,8.54,0,0,1,81.17,23,8.13,8.13,0,0,1,78,21.13a11.64,11.64,0,0,1-2.55-3.64A13.54,13.54,0,0,1,74.22,13a13.23,13.23,0,0,1,.35-4.66,11.6,11.6,0,0,1,2-4.19,9.79,9.79,0,0,1,3.77-3,11.77,11.77,0,0,1,2.86-1A8.16,8.16,0,0,1,85.77.07a7.92,7.92,0,0,1,4.92,2.74,15.8,15.8,0,0,1,3.18,6.07ZM82.08,5.08A4.52,4.52,0,0,0,79.52,7.8a8.07,8.07,0,0,0-.25,3.7l8.3-3.92a6.23,6.23,0,0,0-.9-1.52,4.06,4.06,0,0,0-1.25-1,3.43,3.43,0,0,0-1.53-.38A3.9,3.9,0,0,0,82.08,5.08Z"/></g></g></svg>